<svg width="64" height="64" viewBox="0 0 64 64" fill="none" xmlns="http://www.w3.org/2000/svg">
  <rect width="64" height="64" rx="16" fill="#25D366"/>
  <path fill-rule="evenodd" clip-rule="evenodd" d="M32 11.5C20.95 11.5 12 20.45 12 31.5C12 35.03 12.92 38.35 14.53 41.24L12.5 52.5L23.99 50.48C26.72 51.78 29.78 52.5 33 52.5C44.05 52.5 53 43.55 53 32.5C53 21.45 44.05 11.5 32 11.5ZM33 48.9C30.09 48.9 27.35 48.2 24.95 46.96L24.36 46.65L17.09 47.93L18.37 40.86L18.02 40.24C16.48 37.67 15.6 34.67 15.6 31.5C15.6 22.44 22.94 15.1 32 15.1C41.93 15.1 49.4 23.34 49.4 32.5C49.4 41.56 42.06 48.9 33 48.9Z" fill="white"/>
  <path d="M42.38 36.82C41.82 36.54 39.08 35.19 38.56 35C38.04 34.82 37.66 34.72 37.28 35.28C36.91 35.84 35.81 37.1 35.48 37.47C35.15 37.84 34.81 37.89 34.25 37.61C33.69 37.33 31.89 36.74 29.76 34.84C28.1 33.36 26.98 31.54 26.65 30.98C26.32 30.42 26.61 30.12 26.9 29.84C27.16 29.59 27.46 29.18 27.74 28.86C28.02 28.53 28.11 28.3 28.3 27.93C28.49 27.56 28.4 27.23 28.25 26.95C28.11 26.67 26.98 23.93 26.51 22.82C26.06 21.75 25.6 21.89 25.23 21.87C24.9 21.85 24.52 21.85 24.14 21.85C23.77 21.85 23.16 22 22.64 22.56C22.12 23.12 20.66 24.47 20.66 27.23C20.66 29.98 22.69 32.64 22.97 33.01C23.25 33.38 26.97 39.07 32.7 41.52C34.06 42.11 35.12 42.46 35.95 42.72C37.31 43.15 38.55 43.09 39.53 42.94C40.62 42.78 42.9 41.58 43.37 40.27C43.84 38.97 43.84 37.86 43.7 37.61C43.56 37.36 42.94 37.1 42.38 36.82Z" fill="white"/>
</svg>
